<svg width="25" height="24" viewBox="0 0 25 24" fill="none" xmlns="http://www.w3.org/2000/svg">
<path d="M7.277 14.514C7.27516 15.035 7.06729 15.5342 6.69878 15.9025C6.33027 16.2708 5.83102 16.4784 5.31 16.48C4.78881 16.4784 4.28941 16.2707 3.92087 15.9021C3.55233 15.5336 3.34458 15.0342 3.343 14.513C3.343 13.43 4.227 12.545 5.31 12.545H7.278V14.513L7.277 14.514ZM8.269 14.514C8.269 13.431 9.153 12.546 10.236 12.546C11.319 12.546 12.204 13.431 12.204 14.514V19.441C12.2024 19.9624 11.9945 20.4619 11.6258 20.8305C11.257 21.1991 10.7574 21.4067 10.236 21.408C9.71481 21.4064 9.21541 21.1987 8.84687 20.8301C8.47833 20.4616 8.27059 19.9622 8.269 19.441V14.514ZM10.236 6.52702C9.71498 6.52517 9.21584 6.31731 8.84752 5.9488C8.47919 5.58028 8.27158 5.08104 8.27 4.56002C8.27 3.47702 9.154 2.59302 10.237 2.59302C11.32 2.59302 12.205 3.47702 12.205 4.56002V6.52802H10.236V6.52702ZM10.236 7.51902C11.319 7.51902 12.204 8.40302 12.204 9.48602C12.2027 10.0076 11.9949 10.5074 11.6261 10.8761C11.2573 11.2449 10.7575 11.4527 10.236 11.454H5.31C4.78864 11.4524 4.28909 11.2446 3.92052 10.8758C3.55195 10.507 3.34432 10.0074 3.343 9.48602C3.343 8.40302 4.227 7.51902 5.31 7.51902H10.237H10.236ZM18.223 9.48602C18.223 8.40302 19.108 7.51902 20.191 7.51902C21.274 7.51902 22.158 8.40302 22.158 9.48602C22.1567 10.0074 21.9491 10.507 21.5805 10.8758C21.2119 11.2446 20.7124 11.4524 20.191 11.454H18.223V9.48602ZM17.231 9.48602C17.2297 10.0074 17.0221 10.507 16.6535 10.8758C16.2849 11.2446 15.7854 11.4524 15.264 11.454C14.7425 11.4527 14.2427 11.2449 13.8739 10.8761C13.5051 10.5074 13.2973 10.0076 13.296 9.48602V4.56002C13.296 3.47702 14.181 2.59302 15.264 2.59302C16.347 2.59302 17.231 3.47702 17.231 4.56002V9.48702V9.48602ZM15.264 17.473C16.347 17.473 17.231 18.358 17.231 19.441C17.2294 19.9622 17.0217 20.4616 16.6531 20.8301C16.2846 21.1987 15.7852 21.4064 15.264 21.408C14.7426 21.4067 14.243 21.1991 13.8742 20.8305C13.5055 20.4619 13.2976 19.9624 13.296 19.441V17.473H15.264ZM15.264 16.481C14.7426 16.4797 14.243 16.2721 13.8742 15.9035C13.5055 15.5349 13.2976 15.0354 13.296 14.514C13.296 13.431 14.181 12.546 15.264 12.546H20.191C21.274 12.546 22.158 13.431 22.158 14.514C22.1564 15.0352 21.9487 15.5346 21.5801 15.9031C21.2116 16.2717 20.7122 16.4794 20.191 16.481H15.264Z" fill="#9CBBEF"/>
</svg>
