<svg width="25" height="24" viewBox="0 0 25 24" fill="none" xmlns="http://www.w3.org/2000/svg">
<path d="M22.912 5.65593C22.1486 5.99362 21.339 6.2154 20.51 6.31393C21.3838 5.79136 22.0377 4.96894 22.35 3.99993C21.53 4.48793 20.631 4.82993 19.694 5.01493C19.0646 4.34151 18.2304 3.89489 17.321 3.74451C16.4116 3.59413 15.4779 3.74842 14.6653 4.18338C13.8526 4.61834 13.2064 5.30961 12.8271 6.14972C12.4478 6.98983 12.3568 7.93171 12.568 8.82893C10.9051 8.74558 9.27834 8.31345 7.79329 7.56059C6.30825 6.80773 4.99813 5.75097 3.94801 4.45893C3.5763 5.09738 3.38096 5.82315 3.38201 6.56193C3.38201 8.01193 4.12001 9.29293 5.24201 10.0429C4.57802 10.022 3.92864 9.84271 3.34801 9.51993V9.57193C3.34821 10.5376 3.68238 11.4735 4.29385 12.221C4.90533 12.9684 5.75649 13.4814 6.70301 13.6729C6.08662 13.84 5.44031 13.8646 4.81301 13.7449C5.07987 14.5762 5.60001 15.3031 6.3006 15.824C7.00118 16.3449 7.84714 16.6337 8.72001 16.6499C7.85249 17.3313 6.85918 17.8349 5.79689 18.1321C4.73459 18.4293 3.62413 18.5142 2.52901 18.3819C4.4407 19.6114 6.6661 20.264 8.93901 20.2619C16.632 20.2619 20.839 13.8889 20.839 8.36193C20.839 8.18193 20.834 7.99993 20.826 7.82193C21.6449 7.23009 22.3516 6.49695 22.913 5.65693L22.912 5.65593Z" fill="#9CBBEF"/>
</svg>
